# xmcd CD database file
#
# Track frame offsets:
#	150
#	10070
#	36449
#	55613
#	67549
#	89557
#	107261
#	127230
#	154164
#	175926
#	224797
#	251709
#	274886
#	293587
#	320389
#	344234
#
# Disc length: 4759 seconds
#
# Revision: 0
# Processed by: cddbd v1.5.2PL0 Copyright (c) Steve Scherf et al.
# Submitted via: CDex 1.70beta2
#
DISCID=f0129510
DTITLE=John Mayall - The Statesman Of British Blues
DYEAR=2007
DGENRE=Blues
TTITLE0=I'm Your Witch Doctor
TTITLE1=Ridin' On The L&N
TTITLE2=John Lee Boogie
TTITLE3=Lost And Gone
TTITLE4=A Big Man
TTITLE5=Telephone Blues
TTITLE6=Road Show
TTITLE7=Dream About The Blues
TTITLE8=All Your Love
TTITLE9=Room To Move
TTITLE10=Mexico City
TTITLE11=Cold Blooded Woman
TTITLE12=I Ain't Got You
TTITLE13=Tears Came Rollin' Down
TTITLE14=Gimme One More Day
TTITLE15=On The Top Of The World
EXTD=YEAR: 2007
EXTT0=
EXTT1=
EXTT2=
EXTT3=
EXTT4=
EXTT5=
EXTT6=
EXTT7=
EXTT8=
EXTT9=
EXTT10=
EXTT11=
EXTT12=
EXTT13=
EXTT14=
EXTT15=
PLAYORDER=
